<svg width="840" height="216" viewBox="0 0 840 216" fill="none" xmlns="http://www.w3.org/2000/svg">
<path d="M162 85.29L0 26.97V0L162 58.32V85.29Z" fill="#F44336"/>
<path d="M162 111.4L0 53.08V26.11L162 84.43V111.4Z" fill="#FB8C00"/>
<path d="M162 137.51L0 79.19V52.22L162 110.54V137.51Z" fill="#FDD835"/>
<path d="M162 163.82L0 105.23V78.14L162 136.73V163.82Z" fill="#78BA22"/>
<path d="M162 190.14L0 131.55V104.46L162 163.05V190.14Z" fill="#039BE5"/>
<path d="M162 215.92L0 157.33V130.24L162 188.83V215.92Z" fill="#9C27B0"/>
<path d="M234.14 179.73C227.4 179.73 221.07 178.43 215.15 175.82C209.22 173.21 204.74 169.73 201.7 165.39L214.74 154.3C220.61 160.17 227.07 163.1 234.14 163.1C243.16 163.1 247.67 160.38 247.67 154.95C247.67 153.1 246.88 151.42 245.31 149.9C243.73 148.38 242.05 147.21 240.26 146.4C238.47 145.58 235.56 144.36 231.54 142.73C221.97 139.58 214.99 135.96 210.59 131.89C206.19 127.81 203.99 122.41 203.99 115.67C203.99 108.39 206.79 102.71 212.39 98.63C217.99 94.55 225.08 92.52 233.67 92.52C246.28 92.52 256.22 96.81 263.51 105.4L250.3 116.16C245.41 111.49 239.87 109.15 233.67 109.15C226.17 109.15 222.42 111.43 222.42 116C222.42 118.28 223.81 120.24 226.58 121.87C229.35 123.5 233.4 125.19 238.73 126.92C247.75 129.96 254.57 133.55 259.19 137.68C263.81 141.81 266.12 147.57 266.12 154.96C266.12 162.9 263.24 169.01 257.48 173.3C251.7 177.58 243.93 179.73 234.14 179.73Z" fill="white"/>
<path d="M297.73 79.7C295.55 81.93 292.89 83.04 289.74 83.04C286.59 83.04 283.9 81.93 281.67 79.7C279.44 77.47 278.33 74.78 278.33 71.63C278.33 68.48 279.44 65.82 281.67 63.64C283.9 61.47 286.59 60.38 289.74 60.38C292.89 60.38 295.55 61.47 297.73 63.64C299.9 65.82 300.99 68.48 300.99 71.63C300.99 74.79 299.9 77.48 297.73 79.7ZM280 177.92V94.92H299V177.92H280Z" fill="white"/>
<path d="M310.59 177.92L339.34 134.71L312.7 94.92H334.63L345.84 111.81C348.44 115.71 349.95 118.2 350.39 119.28C352.23 115.92 353.69 113.43 354.78 111.81L366.15 94.92H388.08L361.28 134.71L390.19 177.92H368.26L354.78 157.78C353.7 156.16 352.23 153.67 350.39 150.31C349.63 152.04 348.12 154.53 345.84 157.78L332.52 177.92H310.59Z" fill="white"/>
<path d="M427.34 179.73C421.36 179.73 415.68 178.45 410.3 175.9C404.92 173.35 400.54 169.95 397.18 165.71L407.29 157.07C413.48 163.7 420.28 167.01 427.67 167.01C432.34 167.01 436.09 166.11 438.92 164.32C441.74 162.53 443.16 159.89 443.16 156.41C443.16 153.8 442.13 151.44 440.06 149.32C437.99 147.2 435.87 145.63 433.7 144.59C431.52 143.56 428.32 142.23 424.08 140.6C415.6 137.45 409.19 133.92 404.84 130C400.49 126.09 398.32 120.93 398.32 114.51C398.32 107.77 400.95 102.42 406.23 98.45C411.5 94.48 418.21 92.5 426.37 92.5C438 92.5 447.35 96.68 454.41 105.05L444.63 113.2C439.52 107.88 433.38 105.21 426.21 105.21C421.97 105.21 418.6 106.02 416.1 107.66C413.6 109.29 412.35 111.57 412.35 114.51C412.35 116.14 412.76 117.64 413.57 118.99C414.38 120.35 415.85 121.63 417.97 122.82C420.09 124.02 421.77 124.91 423.02 125.51C424.27 126.11 426.58 127.06 429.95 128.36C438.75 131.51 445.46 135.1 450.09 139.12C454.71 143.14 457.02 148.79 457.02 156.08C457.02 163.47 454.36 169.26 449.03 173.44C443.7 177.63 436.47 179.73 427.34 179.73Z" fill="white"/>
<path d="M495.38 179.8C483.79 179.8 478 173.17 478 159.91V106.92H464V94.92H478V67.37L492 60.52V94.92H513V106.92H492V155.18C492 158.88 492.59 161.7 493.77 163.66C494.95 165.62 497.2 166.59 500.53 166.59C504.18 166.59 508.25 165.12 512.76 162.19L511.15 176.05C506.43 178.55 501.17 179.8 495.38 179.8Z" fill="white"/>
<path d="M527 177.92V94.92H541V105.8C544.86 97.25 551.35 92.97 560.47 92.97C565.62 92.97 569.86 94.38 573.18 97.19L571.09 110.51C567.66 108.13 563.74 106.94 559.34 106.94C554.51 106.94 550.25 108.84 546.55 112.62C542.85 116.41 541 122.58 541 131.14V177.92H527Z" fill="white"/>
<path d="M596.73 76.77C594.99 78.46 592.87 79.3 590.37 79.3C587.87 79.3 585.78 78.43 584.09 76.69C582.4 74.95 581.56 72.89 581.56 70.49C581.56 67.99 582.43 65.84 584.17 64.05C585.91 62.26 587.97 61.36 590.37 61.36C592.87 61.36 594.99 62.26 596.73 64.05C598.47 65.84 599.34 67.99 599.34 70.49C599.34 72.99 598.47 75.08 596.73 76.77ZM583 177.92V94.92H597V177.92H583Z" fill="white"/>
<path d="M653.08 180.19C644.5 180.19 637.47 176.93 632 170.41V204.48L618 211.16V94.92H632V101.93C637.9 95.95 644.93 92.96 653.08 92.96C663.49 92.96 671.75 96.87 677.86 104.7C683.98 112.53 687.03 123.12 687.03 136.49C687.03 150.08 683.92 160.76 677.7 168.53C671.48 176.3 663.27 180.19 653.08 180.19ZM651.56 166.52C658.51 166.52 663.87 163.89 667.62 158.61C671.37 153.34 673.24 145.81 673.24 136.03C673.24 126.79 671.31 119.4 667.45 113.86C663.59 108.32 658.29 105.54 651.55 105.54C642.75 105.54 636.23 109.29 631.99 116.79V155.27C637.76 162.77 644.28 166.52 651.56 166.52Z" fill="white"/>
<path d="M735.64 180.07C724.33 180.07 715.34 176.02 708.66 167.92C701.98 159.82 698.63 149.31 698.63 136.37C698.63 122.78 702 112.13 708.74 104.42C715.48 96.7 724.44 92.84 735.64 92.84C745.64 92.84 753.87 96.18 760.34 102.87C766.81 109.55 770.04 119.42 770.04 132.46C770.04 135.5 769.88 138.65 769.55 141.92H713.14C713.68 149.53 716.05 155.64 720.23 160.26C724.41 164.88 729.66 167.19 735.96 167.19C742.91 167.19 748.89 164.69 753.89 159.69L762.53 169.31C755.36 176.48 746.4 180.07 735.64 180.07ZM712.97 129.92H755.69C755.58 121.34 753.54 115.11 749.58 111.25C745.61 107.39 740.96 105.46 735.64 105.46C729.23 105.46 723.96 107.5 719.83 111.57C715.69 115.65 713.41 121.77 712.97 129.92Z" fill="white"/>
<path d="M809.33 179.73C803.35 179.73 797.67 178.45 792.29 175.9C786.91 173.35 782.53 169.95 779.17 165.71L789.28 157.07C795.47 163.7 802.27 167.01 809.66 167.01C814.33 167.01 818.08 166.11 820.91 164.32C823.73 162.53 825.15 159.89 825.15 156.41C825.15 153.8 824.12 151.44 822.05 149.32C819.98 147.2 817.86 145.63 815.69 144.59C813.51 143.56 810.31 142.23 806.07 140.6C797.59 137.45 791.18 133.92 786.83 130C782.48 126.09 780.31 120.93 780.31 114.51C780.31 107.77 782.94 102.42 788.22 98.45C793.49 94.48 800.2 92.5 808.36 92.5C819.99 92.5 829.34 96.68 836.4 105.05L826.62 113.2C821.51 107.88 815.37 105.21 808.2 105.21C803.96 105.21 800.59 106.02 798.09 107.66C795.59 109.29 794.34 111.57 794.34 114.51C794.34 116.14 794.75 117.64 795.56 118.99C796.37 120.35 797.84 121.63 799.96 122.82C802.08 124.02 803.76 124.91 805.01 125.51C806.26 126.11 808.57 127.06 811.94 128.36C820.74 131.51 827.45 135.1 832.08 139.12C836.7 143.14 839.01 148.79 839.01 156.08C839.01 163.47 836.35 169.26 831.02 173.44C825.68 177.63 818.46 179.73 809.33 179.73Z" fill="white"/>
</svg>
